<svg width="20" height="20" viewBox="0 0 20 20" fill="none" xmlns="http://www.w3.org/2000/svg">
<path d="M10 15L13.3333 11.6667L12.1667 10.5L10.8333 11.8333V8.33333H9.16667V11.8333L7.83333 10.5L6.66667 11.6667L10 15ZM4.16667 6.66667V15.8333H15.8333V6.66667H4.16667ZM4.16667 17.5C3.70833 17.5 3.3125 17.3403 2.97917 17.0208C2.65972 16.6875 2.5 16.2917 2.5 15.8333V5.4375C2.5 5.24306 2.52778 5.05556 2.58333 4.875C2.65278 4.69444 2.75 4.52778 2.875 4.375L3.91667 3.10417C4.06944 2.90972 4.25694 2.76389 4.47917 2.66667C4.71528 2.55556 4.95833 2.5 5.20833 2.5H14.7917C15.0417 2.5 15.2778 2.55556 15.5 2.66667C15.7361 2.76389 15.9306 2.90972 16.0833 3.10417L17.125 4.375C17.25 4.52778 17.3403 4.69444 17.3958 4.875C17.4653 5.05556 17.5 5.24306 17.5 5.4375V15.8333C17.5 16.2917 17.3333 16.6875 17 17.0208C16.6806 17.3403 16.2917 17.5 15.8333 17.5H4.16667ZM4.5 5H15.5L14.7917 4.16667H5.20833L4.5 5Z" fill="#797F8E"/>
</svg>
