<svg width="20" height="20" viewBox="0 0 20 20" fill="none" xmlns="http://www.w3.org/2000/svg">
<path d="M3.33464 16.6673C2.8763 16.6673 2.48394 16.5041 2.15755 16.1777C1.83116 15.8513 1.66797 15.459 1.66797 15.0007V5.00065C1.66797 4.54232 1.83116 4.14996 2.15755 3.82357C2.48394 3.49718 2.8763 3.33398 3.33464 3.33398H8.33464L10.0013 5.00065H16.668C17.1263 5.00065 17.5187 5.16385 17.8451 5.49023C18.1714 5.81662 18.3346 6.20898 18.3346 6.66732V15.0007C18.3346 15.459 18.1714 15.8513 17.8451 16.1777C17.5187 16.5041 17.1263 16.6673 16.668 16.6673H3.33464ZM3.33464 15.0007H16.668V6.66732H9.3138L7.64714 5.00065H3.33464V15.0007Z" fill="#797F8E"/>
</svg>
