<svg width="20" height="20" viewBox="0 0 20 20" fill="none" xmlns="http://www.w3.org/2000/svg">
<path d="M0 16.6673V14.3548C0 13.8826 0.118056 13.4451 0.354167 13.0423C0.590278 12.6395 0.916667 12.334 1.33333 12.1257C1.52778 12.0284 1.71528 11.9382 1.89583 11.8548C2.09028 11.7715 2.29167 11.6951 2.5 11.6257V16.6673H0ZM3.33333 10.834C2.63889 10.834 2.04861 10.5909 1.5625 10.1048C1.07639 9.61871 0.833333 9.02843 0.833333 8.33398C0.833333 7.63954 1.07639 7.04926 1.5625 6.56315C2.04861 6.07704 2.63889 5.83398 3.33333 5.83398C4.02778 5.83398 4.61806 6.07704 5.10417 6.56315C5.59028 7.04926 5.83333 7.63954 5.83333 8.33398C5.83333 9.02843 5.59028 9.61871 5.10417 10.1048C4.61806 10.5909 4.02778 10.834 3.33333 10.834ZM3.33333 9.16732C3.56944 9.16732 3.76389 9.09093 3.91667 8.93815C4.08333 8.77149 4.16667 8.5701 4.16667 8.33398C4.16667 8.09787 4.08333 7.90343 3.91667 7.75065C3.76389 7.58398 3.56944 7.50065 3.33333 7.50065C3.09722 7.50065 2.89583 7.58398 2.72917 7.75065C2.57639 7.90343 2.5 8.09787 2.5 8.33398C2.5 8.5701 2.57639 8.77149 2.72917 8.93815C2.89583 9.09093 3.09722 9.16732 3.33333 9.16732ZM3.33333 16.6673V14.334C3.33333 13.8618 3.45139 13.4312 3.6875 13.0423C3.9375 12.6395 4.26389 12.334 4.66667 12.1257C5.52778 11.6951 6.40278 11.3757 7.29167 11.1673C8.18056 10.9451 9.08333 10.834 10 10.834C10.9167 10.834 11.8194 10.9451 12.7083 11.1673C13.5972 11.3757 14.4722 11.6951 15.3333 12.1257C15.7361 12.334 16.0556 12.6395 16.2917 13.0423C16.5417 13.4312 16.6667 13.8618 16.6667 14.334V16.6673H3.33333ZM5 15.0007H15V14.334C15 14.1812 14.9583 14.0423 14.875 13.9173C14.8056 13.7923 14.7083 13.6951 14.5833 13.6257C13.8333 13.2507 13.0764 12.9729 12.3125 12.7923C11.5486 12.5979 10.7778 12.5007 10 12.5007C9.22222 12.5007 8.45139 12.5979 7.6875 12.7923C6.92361 12.9729 6.16667 13.2507 5.41667 13.6257C5.29167 13.6951 5.1875 13.7923 5.10417 13.9173C5.03472 14.0423 5 14.1812 5 14.334V15.0007ZM10 10.0007C9.08333 10.0007 8.29861 9.67426 7.64583 9.02148C6.99306 8.36871 6.66667 7.58398 6.66667 6.66732C6.66667 5.75065 6.99306 4.96593 7.64583 4.31315C8.29861 3.66037 9.08333 3.33398 10 3.33398C10.9167 3.33398 11.7014 3.66037 12.3542 4.31315C13.0069 4.96593 13.3333 5.75065 13.3333 6.66732C13.3333 7.58398 13.0069 8.36871 12.3542 9.02148C11.7014 9.67426 10.9167 10.0007 10 10.0007ZM10 8.33398C10.4583 8.33398 10.8472 8.17426 11.1667 7.85482C11.5 7.52148 11.6667 7.12565 11.6667 6.66732C11.6667 6.20898 11.5 5.8201 11.1667 5.50065C10.8472 5.16732 10.4583 5.00065 10 5.00065C9.54167 5.00065 9.14583 5.16732 8.8125 5.50065C8.49306 5.8201 8.33333 6.20898 8.33333 6.66732C8.33333 7.12565 8.49306 7.52148 8.8125 7.85482C9.14583 8.17426 9.54167 8.33398 10 8.33398ZM16.6667 10.834C15.9722 10.834 15.3819 10.5909 14.8958 10.1048C14.4097 9.61871 14.1667 9.02843 14.1667 8.33398C14.1667 7.63954 14.4097 7.04926 14.8958 6.56315C15.3819 6.07704 15.9722 5.83398 16.6667 5.83398C17.3611 5.83398 17.9514 6.07704 18.4375 6.56315C18.9236 7.04926 19.1667 7.63954 19.1667 8.33398C19.1667 9.02843 18.9236 9.61871 18.4375 10.1048C17.9514 10.5909 17.3611 10.834 16.6667 10.834ZM16.6667 9.16732C16.9028 9.16732 17.0972 9.09093 17.25 8.93815C17.4167 8.77149 17.5 8.5701 17.5 8.33398C17.5 8.09787 17.4167 7.90343 17.25 7.75065C17.0972 7.58398 16.9028 7.50065 16.6667 7.50065C16.4306 7.50065 16.2292 7.58398 16.0625 7.75065C15.9097 7.90343 15.8333 8.09787 15.8333 8.33398C15.8333 8.5701 15.9097 8.77149 16.0625 8.93815C16.2292 9.09093 16.4306 9.16732 16.6667 9.16732ZM17.5 16.6673V11.6257C17.7083 11.6951 17.9028 11.7715 18.0833 11.8548C18.2778 11.9382 18.4722 12.0284 18.6667 12.1257C19.0833 12.334 19.4097 12.6395 19.6458 13.0423C19.8819 13.4451 20 13.8826 20 14.3548V16.6673H17.5Z" fill="#797F8E"/>
</svg>
