<svg width="20" height="20" viewBox="0 0 20 20" fill="none" xmlns="http://www.w3.org/2000/svg">
<path d="M10.0013 18.3327C8.86241 18.3327 7.78602 18.1139 6.77214 17.6764C5.75825 17.2389 4.87283 16.6417 4.11589 15.8848C3.35894 15.1278 2.76172 14.2424 2.32422 13.2285C1.88672 12.2146 1.66797 11.1382 1.66797 9.99935C1.66797 8.84657 1.88672 7.76671 2.32422 6.75977C2.76172 5.75282 3.35894 4.87088 4.11589 4.11393C4.87283 3.35699 5.75825 2.75977 6.77214 2.32227C7.78602 1.88477 8.86241 1.66602 10.0013 1.66602C11.1541 1.66602 12.2339 1.88477 13.2409 2.32227C14.2478 2.75977 15.1298 3.35699 15.8867 4.11393C16.6437 4.87088 17.2409 5.75282 17.6784 6.75977C18.1159 7.76671 18.3346 8.84657 18.3346 9.99935C18.3346 11.1382 18.1159 12.2146 17.6784 13.2285C17.2409 14.2424 16.6437 15.1278 15.8867 15.8848C15.1298 16.6417 14.2478 17.2389 13.2409 17.6764C12.2339 18.1139 11.1541 18.3327 10.0013 18.3327ZM10.0013 16.6244C10.3624 16.1244 10.6749 15.6035 10.9388 15.0619C11.2027 14.5202 11.418 13.9438 11.5846 13.3327H8.41797C8.58464 13.9438 8.79991 14.5202 9.0638 15.0619C9.32769 15.6035 9.64019 16.1244 10.0013 16.6244ZM7.83464 16.291C7.58464 15.8327 7.36589 15.357 7.17839 14.8639C6.99089 14.3709 6.83464 13.8605 6.70964 13.3327H4.2513C4.65408 14.0271 5.15755 14.6313 5.76172 15.1452C6.36589 15.6591 7.05686 16.041 7.83464 16.291ZM12.168 16.291C12.9457 16.041 13.6367 15.6591 14.2409 15.1452C14.8451 14.6313 15.3485 14.0271 15.7513 13.3327H13.293C13.168 13.8605 13.0117 14.3709 12.8242 14.8639C12.6367 15.357 12.418 15.8327 12.168 16.291ZM3.54297 11.666H6.3763C6.33464 11.3882 6.30339 11.1139 6.28255 10.8431C6.26172 10.5723 6.2513 10.291 6.2513 9.99935C6.2513 9.70768 6.26172 9.42643 6.28255 9.1556C6.30339 8.88477 6.33464 8.61046 6.3763 8.33268H3.54297C3.47352 8.61046 3.42144 8.88477 3.38672 9.1556C3.352 9.42643 3.33464 9.70768 3.33464 9.99935C3.33464 10.291 3.352 10.5723 3.38672 10.8431C3.42144 11.1139 3.47352 11.3882 3.54297 11.666ZM8.04297 11.666H11.9596C12.0013 11.3882 12.0326 11.1139 12.0534 10.8431C12.0742 10.5723 12.0846 10.291 12.0846 9.99935C12.0846 9.70768 12.0742 9.42643 12.0534 9.1556C12.0326 8.88477 12.0013 8.61046 11.9596 8.33268H8.04297C8.0013 8.61046 7.97005 8.88477 7.94922 9.1556C7.92839 9.42643 7.91797 9.70768 7.91797 9.99935C7.91797 10.291 7.92839 10.5723 7.94922 10.8431C7.97005 11.1139 8.0013 11.3882 8.04297 11.666ZM13.6263 11.666H16.4596C16.5291 11.3882 16.5812 11.1139 16.6159 10.8431C16.6506 10.5723 16.668 10.291 16.668 9.99935C16.668 9.70768 16.6506 9.42643 16.6159 9.1556C16.5812 8.88477 16.5291 8.61046 16.4596 8.33268H13.6263C13.668 8.61046 13.6992 8.88477 13.7201 9.1556C13.7409 9.42643 13.7513 9.70768 13.7513 9.99935C13.7513 10.291 13.7409 10.5723 13.7201 10.8431C13.6992 11.1139 13.668 11.3882 13.6263 11.666ZM13.293 6.66602H15.7513C15.3485 5.97157 14.8451 5.3674 14.2409 4.85352C13.6367 4.33963 12.9457 3.95768 12.168 3.70768C12.418 4.16602 12.6367 4.64171 12.8242 5.13477C13.0117 5.62782 13.168 6.13824 13.293 6.66602ZM8.41797 6.66602H11.5846C11.418 6.0549 11.2027 5.47852 10.9388 4.93685C10.6749 4.39518 10.3624 3.87435 10.0013 3.37435C9.64019 3.87435 9.32769 4.39518 9.0638 4.93685C8.79991 5.47852 8.58464 6.0549 8.41797 6.66602ZM4.2513 6.66602H6.70964C6.83464 6.13824 6.99089 5.62782 7.17839 5.13477C7.36589 4.64171 7.58464 4.16602 7.83464 3.70768C7.05686 3.95768 6.36589 4.33963 5.76172 4.85352C5.15755 5.3674 4.65408 5.97157 4.2513 6.66602Z" fill="#797F8E"/>
</svg>
