<svg width="20" height="20" viewBox="0 0 20 20" fill="none" xmlns="http://www.w3.org/2000/svg">
<path d="M7.5 13.7493C6.91667 13.7493 6.42361 13.548 6.02083 13.1452C5.61806 12.7424 5.41667 12.2493 5.41667 11.666C5.41667 11.0827 5.61806 10.5896 6.02083 10.1868C6.42361 9.78407 6.91667 9.58268 7.5 9.58268C8.08333 9.58268 8.57639 9.78407 8.97917 10.1868C9.38194 10.5896 9.58333 11.0827 9.58333 11.666C9.58333 12.2493 9.38194 12.7424 8.97917 13.1452C8.57639 13.548 8.08333 13.7493 7.5 13.7493ZM4.16667 18.3327C3.70833 18.3327 3.31597 18.1695 2.98958 17.8431C2.66319 17.5167 2.5 17.1243 2.5 16.666V4.99935C2.5 4.54102 2.66319 4.14865 2.98958 3.82227C3.31597 3.49588 3.70833 3.33268 4.16667 3.33268H5V1.66602H6.66667V3.33268H13.3333V1.66602H15V3.33268H15.8333C16.2917 3.33268 16.684 3.49588 17.0104 3.82227C17.3368 4.14865 17.5 4.54102 17.5 4.99935V16.666C17.5 17.1243 17.3368 17.5167 17.0104 17.8431C16.684 18.1695 16.2917 18.3327 15.8333 18.3327H4.16667ZM4.16667 16.666H15.8333V8.33268H4.16667V16.666Z" fill="#797F8E"/>
</svg>
